nColumns=19
nRows=143
DataType=double
version=3
OpenSimVersion=4.1
endheader
time	ground_force_calcn_r_vx	ground_force_calcn_r_vy	ground_force_calcn_r_vz	ground_force_calcn_r_px	ground_force_calcn_r_py	ground_force_calcn_r_pz	ground_force_calcn_r_mx	ground_force_calcn_r_my	ground_force_calcn_r_mz	ground_force_calcn_l_vx	ground_force_calcn_l_vy	ground_force_calcn_l_vz	ground_force_calcn_l_px	ground_force_calcn_l_py	ground_force_calcn_l_pz	ground_force_calcn_l_mx	ground_force_calcn_l_my	ground_force_calcn_l_mz
2.13	0	0	0	0	0	0	0	0	0	-191.807	1230.24	33.7727	1.1867	0	-0.342157	2.15861	-13.8453	-0.380081
2.14	0	0	0	0	0	0	0	0	0	-244.262	1309.2	-8.56718	1.16367	0	-0.345422	2.09597	-11.234	0.0735134
2.15	0	0	0	0	0	0	0	0	0	-275.611	1418.04	-37.5092	1.1353	0	-0.349055	1.55538	-8.00255	0.211678
2.16	0	0	0	0	0	0	0	0	0	-261.609	1598.7	-30.7896	1.10091	0	-0.346379	0.839246	-5.12865	0.0987735
2.17	0	0	0	0	0	0	0	0	0	-199.61	1765.69	-17.3028	1.0633	0	-0.343725	0.313007	-2.76876	0.0271323
2.18	0	0	0	0	0	0	0	0	0	-127.493	1839.92	-26.1457	1.02923	0	-0.345243	0.0505932	-0.730138	0.0103754
2.19	0	0	0	0	0	0	0	0	0	-69.438	1832.98	-46.4717	0.997865	0	-0.347356	-0.0428954	1.13233	-0.0287079
2.2	0	0	0	0	0	0	0	0	0	-14.5028	1790.67	-57.7697	0.964589	0	-0.346785	-0.0228452	2.82071	-0.0910004
2.21	0	0	0	0	0	0	0	0	0	40.5742	1714.42	-60.5262	0.931325	0	-0.345337	0.101484	4.28808	-0.151387
2.22	0	0	0	0	0	0	0	0	0	83.9786	1587.05	-63.0928	0.901289	0	-0.344618	0.291015	5.49967	-0.218638
2.23	0	0	0	0	0	0	0	0	0	118.094	1415.38	-65.6866	0.871817	0	-0.343637	0.534079	6.40108	-0.297068
2.24	0	0	0	0	0	0	0	0	0	150.085	1211.72	-64.8624	0.839108	0	-0.34153	0.852796	6.88506	-0.368553
2.25	0	0	0	0	0	0	0	0	0	172.398	974.842	-60.4016	0.800884	0	-0.339409	1.20839	6.83295	-0.423372
2.26	0	0	0	0	0	0	0	0	0	180.714	719.749	-53.8131	0.754144	0	-0.338785	1.54777	6.16448	-0.460896
2.27	0	0	0	0	0	0	0	0	0	168.347	489.014	-44.7732	0.706215	0	-0.339418	1.70912	4.96463	-0.454553
2.28	0	0	0	0	0	0	0	0	0	135.281	308.976	-32.7307	0.674174	0	-0.339432	1.55467	3.55081	-0.376147
2.29	0	0	0	0	0	0	0	0	0	92.5429	176.965	-20.1935	0.669249	0	-0.337761	1.18365	2.26343	-0.258281
2.3	0	0	0	0	0	0	0	0	0	52.1831	85.7759	-10.4237	0.682194	0	-0.33559	0.801544	1.31754	-0.160111
2.31	0	0	0	0	0	0	0	0	0	20.3924	32.6519	-4.17746	0.688845	0	-0.323269	0.53055	0.849504	-0.108685
2.32	0	0	0	0	0	0	0	0	0	3.71675	10.5683	-0.717173	0.62877	0	-0.257544	0.310807	0.883755	-0.0599722
2.33	0	0	0	0	0	0	0	0	0	0	0	0	0	0	0	0	0	0
2.34	0	0	0	0	0	0	0	0	0	0	0	0	0	0	0	0	0	0
2.35	0	0	0	0	0	0	0	0	0	0	0	0	0	0	0	0	0	0
2.36	0	0	0	0	0	0	0	0	0	0	0	0	0	0	0	0	0	0
2.37	0	0	0	0	0	0	0	0	0	0	0	0	0	0	0	0	0	0
2.38	0	0	0	0	0	0	0	0	0	0	0	0	0	0	0	0	0	0
2.39	0	0	0	0	0	0	0	0	0	0	0	0	0	0	0	0	0	0
2.4	0	0	0	0	0	0	0	0	0	0	0	0	0	0	0	0	0	0
2.41	-10.0634	29.6231	-13.034	1.30113	0	-0.296587	-0.0330054	0.0971566	-0.0427484	0	0	0	0	0	0	0	0	0
2.42	-41.9608	118.237	-28.8147	1.25895	0	-0.318652	-1.20374	3.3919	-0.826615	0	0	0	0	0	0	0	0	0
2.43	-114.047	339.29	-48.7663	1.24298	0	-0.319486	-2.36415	7.03334	-1.0109	0	0	0	0	0	0	0	0	0
2.44	-177.24	665.315	-61.4219	1.2285	0	-0.320007	-2.61327	9.80957	-0.905619	0	0	0	0	0	0	0	0	0
2.45	-178.687	971.312	-53.9956	1.19683	0	-0.324075	-1.92465	10.4621	-0.58159	0	0	0	0	0	0	0	0	0
2.46	-194.426	1204.04	-24.7866	1.15846	0	-0.3301	-1.36222	8.43596	-0.173664	0	0	0	0	0	0	0	0	0
2.47	-241.527	1377.72	12.9396	1.12581	0	-0.334554	-0.837106	4.77501	0.0448471	0	0	0	0	0	0	0	0	0
2.48	-240.96	1554.4	40.5467	1.08936	0	-0.33721	-0.154853	0.998934	0.0260573	0	0	0	0	0	0	0	0	0
2.49	-181.029	1749.07	52.3558	1.04755	0	-0.338681	0.193477	-1.86934	-0.055956	0	0	0	0	0	0	0	0	0
2.5	-114.217	1890.87	57.3233	1.01042	0	-0.338887	0.203548	-3.36974	-0.102156	0	0	0	0	0	0	0	0	0
2.51	-66.5335	1939.4	62.0828	0.980554	0	-0.338998	0.127198	-3.70772	-0.118689	0	0	0	0	0	0	0	0	0
2.52	-21.4805	1918.47	66.8498	0.952388	0	-0.339557	0.0391126	-3.49323	-0.121723	0	0	0	0	0	0	0	0	0
2.53	28.0641	1849.88	71.6062	0.923592	0	-0.33993	-0.0501304	-3.30439	-0.127909	0	0	0	0	0	0	0	0	0
2.54	76.245	1736.72	75.4126	0.894558	0	-0.340116	-0.149707	-3.41005	-0.148073	0	0	0	0	0	0	0	0	0
2.55	116.605	1572.44	76.2965	0.865435	0	-0.340766	-0.274457	-3.70112	-0.179582	0	0	0	0	0	0	0	0	0
2.56	144.381	1354.35	73.7349	0.836713	0	-0.341984	-0.406706	-3.81504	-0.207703	0	0	0	0	0	0	0	0	0
2.57	158.567	1089.76	67.7679	0.808581	0	-0.343191	-0.489546	-3.36443	-0.209221	0	0	0	0	0	0	0	0	0
2.58	161.642	796.396	57.6514	0.776652	0	-0.344101	-0.439592	-2.16582	-0.156785	0	0	0	0	0	0	0	0	0
2.59	155.423	513.731	43.2013	0.735596	0	-0.344467	-0.123526	-0.408297	-0.0343351	0	0	0	0	0	0	0	0	0
2.6	130.727	289.671	27.1292	0.695168	0	-0.342152	0.584584	1.29535	0.121316	0	0	0	0	0	0	0	0	0
2.61	87.1277	141.813	14.1111	0.676018	0	-0.33281	1.42548	2.32017	0.230869	0	0	0	0	0	0	0	0	0
2.62	41.0049	59.4355	6.48251	0.705764	0	-0.306905	1.86688	2.70598	0.295137	0	0	0	0	0	0	0	0	0
2.63	13.2216	21.0854	3.08829	0.770065	0	-0.240749	1.68564	2.68822	0.393732	0	0	0	0	0	0	0	0	0
2.64	0	0	0	0	0	0	0	0	0	0	0	0	0	0	0	0	0	0
2.65	0	0	0	0	0	0	0	0	0	0	0	0	0	0	0	0	0	0
2.66	0	0	0	0	0	0	0	0	0	0	0	0	0	0	0	0	0	0
2.67	0	0	0	0	0	0	0	0	0	0	0	0	0	0	0	0	0	0
2.68	0	0	0	0	0	0	0	0	0	0	0	0	0	0	0	0	0	0
2.69	0	0	0	0	0	0	0	0	0	0	0	0	0	0	0	0	0	0
2.7	0	0	0	0	0	0	0	0	0	0	0	0	0	0	0	0	0	0
2.71	0	0	0	0	0	0	0	0	0	0	0	0	0	0	0	0	0	0
2.72	0	0	0	0	0	0	0	0	0	0	0	0	0	0	0	0	0	0
2.73	0	0	0	0	0	0	0	0	0	0	0	0	0	0	0	0	0	0
2.74	0	0	0	0	0	0	0	0	0	-4.00995	24.5706	1.33882	1.10205	0	-0.346039	0.183725	-1.12576	-0.0613413
2.75	0	0	0	0	0	0	0	0	0	-10.7065	103.003	5.2471	1.15431	0	-0.361883	0.468841	-4.51051	-0.229772
2.76	0	0	0	0	0	0	0	0	0	-30.4414	334.205	16.6591	1.15313	0	-0.362861	0.732481	-8.04163	-0.400852
2.77	0	0	0	0	0	0	0	0	0	-78.6552	761.094	35.8507	1.14609	0	-0.356539	1.06759	-10.3303	-0.486602
2.78	0	0	0	0	0	0	0	0	0	-153.103	1209.6	47.3506	1.13865	0	-0.348462	1.29929	-10.2652	-0.401836
2.79	0	0	0	0	0	0	0	0	0	-215.184	1454.03	26.2538	1.1269	0	-0.344649	1.14017	-7.70427	-0.139107
2.8	0	0	0	0	0	0	0	0	0	-244.605	1543.41	-22.7732	1.10577	0	-0.347226	0.582577	-3.67593	0.054239
2.81	0	0	0	0	0	0	0	0	0	-240.027	1645.76	-55.8975	1.07617	0	-0.34941	-0.0287317	0.197001	-0.00669106
2.82	0	0	0	0	0	0	0	0	0	-196.147	1799.29	-48.2842	1.04121	0	-0.346766	-0.300004	2.75198	-0.0738499
2.83	0	0	0	0	0	0	0	0	0	-122.007	1919.08	-26.5291	1.00554	0	-0.344882	-0.242442	3.81342	-0.0527164
2.84	0	0	0	0	0	0	0	0	0	-55.3005	1934.08	-21.8986	0.973945	0	-0.346382	-0.114643	4.00951	-0.0453977
2.85	0	0	0	0	0	0	0	0	0	-8.99317	1862.44	-31.5793	0.945222	0	-0.347839	-0.0200239	4.14686	-0.0703135
2.86	0	0	0	0	0	0	0	0	0	38.7579	1748.94	-40.3397	0.91561	0	-0.34656	0.103787	4.68336	-0.108023
2.87	0	0	0	0	0	0	0	0	0	86.736	1594.6	-45.7266	0.88621	0	-0.344177	0.305939	5.62454	-0.161289
2.88	0	0	0	0	0	0	0	0	0	122.856	1389.75	-50.7908	0.858227	0	-0.342422	0.587873	6.65	-0.243036
2.89	0	0	0	0	0	0	0	0	0	148.743	1145.41	-53.2034	0.827873	0	-0.3409	0.947993	7.30009	-0.339085
2.9	0	0	0	0	0	0	0	0	0	166.156	878.384	-49.3998	0.789166	0	-0.339081	1.35926	7.18576	-0.404124
2.91	0	0	0	0	0	0	0	0	0	169.29	613.393	-41.0664	0.741459	0	-0.337338	1.70314	6.17103	-0.413148
2.92	0	0	0	0	0	0	0	0	0	150.359	387.607	-32.4335	0.698898	0	-0.335839	1.74408	4.49604	-0.376212
2.93	0	0	0	0	0	0	0	0	0	112.552	220.154	-24.7609	0.679088	0	-0.334578	1.37444	2.68843	-0.30237
2.94	0	0	0	0	0	0	0	0	0	69.1758	110.79	-17.2184	0.694631	0	-0.330518	0.775272	1.24165	-0.192971
2.95	0	0	0	0	0	0	0	0	0	32.6486	48.2898	-9.98581	0.728202	0	-0.320221	0.252285	0.37315	-0.0771632
2.96	0	0	0	0	0	0	0	0	0	10.3364	17.7432	-4.26399	0.696655	0	-0.304275	0.010867	0.0186541	-0.00448289
2.97	0	0	0	0	0	0	0	0	0	0	0	0	0	0	0	0	0	0
2.98	0	0	0	0	0	0	0	0	0	0	0	0	0	0	0	0	0	0
2.99	0	0	0	0	0	0	0	0	0	0	0	0	0	0	0	0	0	0
3	0	0	0	0	0	0	0	0	0	0	0	0	0	0	0	0	0	0
3.01	0	0	0	0	0	0	0	0	0	0	0	0	0	0	0	0	0	0
3.02	0	0	0	0	0	0	0	0	0	0	0	0	0	0	0	0	0	0
3.03	0	0	0	0	0	0	0	0	0	0	0	0	0	0	0	0	0	0
3.04	0	0	0	0	0	0	0	0	0	0	0	0	0	0	0	0	0	0
3.05	-2.46751	10.8834	-5.87561	1.17803	0	-0.22115	0.339461	-1.49725	0.808323	0	0	0	0	0	0	0	0	0
3.06	-14.5133	45.4691	-16.8896	1.20259	0	-0.279276	-0.12429	0.389391	-0.144641	0	0	0	0	0	0	0	0	0
3.07	-53.2926	170.772	-36.6603	1.1781	0	-0.28867	-1.12622	3.60889	-0.774736	0	0	0	0	0	0	0	0	0
3.08	-117.82	449.42	-61.4978	1.17211	0	-0.289383	-1.88621	7.19486	-0.984532	0	0	0	0	0	0	0	0	0
3.09	-145.969	810.406	-77.4525	1.15667	0	-0.292157	-1.77156	9.83553	-0.940005	0	0	0	0	0	0	0	0	0
3.1	-124.644	1117.98	-69.8424	1.12246	0	-0.297587	-1.15134	10.3268	-0.645135	0	0	0	0	0	0	0	0	0
3.11	-149.74	1337.64	-41.1135	1.08723	0	-0.302441	-0.951844	8.50292	-0.261344	0	0	0	0	0	0	0	0	0
3.12	-199.95	1494.9	-12.1995	1.05764	0	-0.30507	-0.724029	5.4131	-0.0441751	0	0	0	0	0	0	0	0	0
3.13	-195.145	1645.22	0.25748	1.02262	0	-0.307116	-0.27341	2.30505	0.000360745	0	0	0	0	0	0	0	0	0
3.14	-140.665	1788.76	1.76277	0.983956	0	-0.308065	0.00840494	-0.106881	-0.000105328	0	0	0	0	0	0	0	0	0
3.15	-80.8555	1872.41	5.34393	0.949431	0	-0.307783	0.0702684	-1.62724	-0.0046442	0	0	0	0	0	0	0	0	0
3.16	-26.3812	1879.47	13.2646	0.918031	0	-0.307886	0.034454	-2.45459	-0.0173236	0	0	0	0	0	0	0	0	0
3.17	31.2131	1823.36	22.8028	0.886083	0	-0.308692	-0.049885	-2.91411	-0.0364436	0	0	0	0	0	0	0	0	0
3.18	86.9522	1711.21	32.9701	0.852899	0	-0.309582	-0.163079	-3.20939	-0.0618356	0	0	0	0	0	0	0	0	0
3.19	134.528	1542	41.7778	0.818551	0	-0.310783	-0.290936	-3.33479	-0.0903505	0	0	0	0	0	0	0	0	0
3.2	175.848	1313.39	46.4692	0.781907	0	-0.31228	-0.420162	-3.13813	-0.111031	0	0	0	0	0	0	0	0	0
3.21	210.691	1036.51	45.3306	0.740478	0	-0.313788	-0.503284	-2.47593	-0.108283	0	0	0	0	0	0	0	0	0
3.22	222.097	750.121	38.896	0.696798	0	-0.314897	-0.410146	-1.38525	-0.0718292	0	0	0	0	0	0	0	0	0
3.23	194.983	501.019	30.577	0.661162	0	-0.314286	-0.0486232	-0.12494	-0.00762504	0	0	0	0	0	0	0	0	0
3.24	146.031	308.647	23.3626	0.637415	0	-0.310546	0.481339	1.01735	0.0770068	0	0	0	0	0	0	0	0	0
3.25	95.7645	170.25	17.2464	0.615449	0	-0.303637	1.0237	1.81993	0.18436	0	0	0	0	0	0	0	0	0
3.26	51.5381	79.3716	11.4946	0.587071	0	-0.290562	1.42339	2.19211	0.31746	0	0	0	0	0	0	0	0	0
3.27	19.4903	29.8885	6.49654	0.614571	0	-0.258832	1.51515	2.32349	0.505031	0	0	0	0	0	0	0	0	0
3.28	4.83119	10.5738	3.13643	0.948266	0	-0.199225	1.14135	2.49802	0.740967	0	0	0	0	0	0	0	0	0
3.29	0	0	0	0	0	0	0	0	0	0	0	0	0	0	0	0	0	0
3.3	0	0	0	0	0	0	0	0	0	0	0	0	0	0	0	0	0	0
3.31	0	0	0	0	0	0	0	0	0	0	0	0	0	0	0	0	0	0
3.32	0	0	0	0	0	0	0	0	0	0	0	0	0	0	0	0	0	0
3.33	0	0	0	0	0	0	0	0	0	0	0	0	0	0	0	0	0	0
3.34	0	0	0	0	0	0	0	0	0	0	0	0	0	0	0	0	0	0
3.35	0	0	0	0	0	0	0	0	0	-3.08276	10.0869	-0.616109	1.16236	0	-0.313093	0.0865076	-0.283057	0.0172891
3.36	0	0	0	0	0	0	0	0	0	-12.3614	41.6197	0.188207	1.10526	0	-0.361867	0.571524	-1.92427	-0.00870164
3.37	0	0	0	0	0	0	0	0	0	-36.8934	161.591	5.69576	1.1272	0	-0.375906	0.946632	-4.14619	-0.146145
3.38	0	0	0	0	0	0	0	0	0	-75.0607	456.608	20.5331	1.13595	0	-0.373879	1.04868	-6.37933	-0.28687
3.39	0	0	0	0	0	0	0	0	0	-111.196	889.079	41.6909	1.13123	0	-0.366174	0.977125	-7.81271	-0.366356
3.4	0	0	0	0	0	0	0	0	0	-148.912	1219.61	49.6817	1.11923	0	-0.359983	0.967439	-7.92348	-0.322768
3.41	0	0	0	0	0	0	0	0	0	-200.044	1334.09	28.2349	1.1008	0	-0.361694	1.03635	-6.91144	-0.146274
3.42	0	0	0	0	0	0	0	0	0	-245.244	1388.58	-1.81731	1.07471	0	-0.368864	0.999267	-5.6579	0.0074048
3.43	0	0	0	0	0	0	0	0	0	-244.385	1526.14	-4.34714	1.04022	0	-0.370498	0.811454	-5.06737	0.0144342
3.44	0	0	0	0	0	0	0	0	0	-189.24	1714.7	17.3443	1.00067	0	-0.367481	0.581545	-5.26938	-0.0533
3.45	0	0	0	0	0	0	0	0	0	-118.404	1837.79	29.4655	0.963953	0	-0.367523	0.364621	-5.65941	-0.0907379
3.46	0	0	0	0	0	0	0	0	0	-64.7293	1855.09	20.395	0.930978	0	-0.370421	0.190979	-5.47329	-0.0601741
3.47	0	0	0	0	0	0	0	0	0	-15.1909	1810.4	5.8474	0.895843	0	-0.37146	0.0357019	-4.25485	-0.0137427
3.48	0	0	0	0	0	0	0	0	0	44.8108	1724.33	-4.82752	0.85811	0	-0.369843	-0.0515766	-1.98469	0.00555642
3.49	0	0	0	0	0	0	0	0	0	108.619	1579.52	-16.2086	0.820479	0	-0.367925	0.0666669	0.969462	-0.00994835
3.5	0	0	0	0	0	0	0	0	0	174.547	1376.44	-30.4118	0.780536	0	-0.366506	0.50081	3.94927	-0.0872572
3.51	0	0	0	0	0	0	0	0	0	230.906	1144.35	-41.8576	0.738058	0	-0.364466	1.2476	6.183	-0.226159
3.52	0	0	0	0	0	0	0	0	0	248.269	903.956	-45.0254	0.698575	0	-0.361566	1.96897	7.16911	-0.357088
3.53	0	0	0	0	0	0	0	0	0	226.676	664.612	-40.8328	0.663011	0	-0.358807	2.34273	6.86885	-0.422013
3.54	0	0	0	0	0	0	0	0	0	185.523	443.228	-34.0353	0.62959	0	-0.357217	2.32066	5.54424	-0.425741
3.55	0	0	0	0	0	0	0	0	0	136.757	260.853	-26.792	0.600107	0	-0.35608	1.93482	3.69051	-0.379049
